<?xml version="1.0" encoding="UTF-8" standalone="no"?>
<svg
   xmlns:dc="http://purl.org/dc/elements/1.1/"
   xmlns:cc="http://creativecommons.org/ns#"
   xmlns:rdf="http://www.w3.org/1999/02/22-rdf-syntax-ns#"
   xmlns:svg="http://www.w3.org/2000/svg"
   xmlns="http://www.w3.org/2000/svg"
   xmlns:sodipodi="http://sodipodi.sourceforge.net/DTD/sodipodi-0.dtd"
   xmlns:inkscape="http://www.inkscape.org/namespaces/inkscape"
   width="256"
   height="256"
   viewBox="0 0 67.733333 67.733333"
   version="1.1"
   id="svg3347"
   inkscape:version="1.0.1 (c497b03c, 2020-09-10)"
   sodipodi:docname="nem.svg">
  <defs
     id="defs3341" />
  <sodipodi:namedview
     id="base"
     pagecolor="#ffffff"
     bordercolor="#666666"
     borderopacity="1.0"
     inkscape:pageopacity="0.0"
     inkscape:pageshadow="2"
     inkscape:zoom="0.78320313"
     inkscape:cx="511.99999"
     inkscape:cy="156.26464"
     inkscape:document-units="mm"
     inkscape:current-layer="layer1"
     showgrid="false"
     fit-margin-top="0"
     fit-margin-left="0"
     fit-margin-right="0"
     fit-margin-bottom="0"
     units="px"
     inkscape:window-width="1440"
     inkscape:window-height="847"
     inkscape:window-x="0"
     inkscape:window-y="45"
     inkscape:window-maximized="0"
     inkscape:document-rotation="0" />
  <metadata
     id="metadata3344">
    <rdf:RDF>
      <cc:Work
         rdf:about="">
        <dc:format>image/svg+xml</dc:format>
        <dc:type
           rdf:resource="http://purl.org/dc/dcmitype/StillImage" />
        <dc:title></dc:title>
      </cc:Work>
    </rdf:RDF>
  </metadata>
  <g
     inkscape:label="Layer 1"
     inkscape:groupmode="layer"
     id="layer1"
     transform="translate(197.87567,-169.04888)">
    <g
       id="g10066"
       transform="matrix(0.26458333,0,0,0.26458333,-415.37405,182.80765)">
      <path
         id="path10060"
         d="m 950.6,147.2 c 0.3,-0.2 0.7,-0.4 1,-0.6 9.7,-5.7 18.7,-12.5 26.8,-20.3 0.5,-0.5 0.9,-1.1 1.3,-1.7 0.5,-1 1.1,-2.1 1.6,-3.1 3.9,-8.1 4.7,-16.4 2.1,-25 -5,-16.7 -21.1,-26.3 -37.2,-24.2 -4.6,0.6 -8.9,2 -12.9,4.3 -7.7,4.3 -15.9,6.1 -24.6,5.3 -4.3,-0.4 -8.4,-1.5 -12.4,-3.2 -3.1,-1.4 -6,-3.1 -8.7,-5.2 -0.2,-0.2 -0.4,-0.3 -0.8,-0.5 0.1,0.4 0.2,0.6 0.3,0.8 3.4,8.8 7.7,17.1 12.8,25.1 5.5,8.6 11.8,16.5 18.9,23.8 7.1,7.3 14.9,13.7 23.4,19.4 3.7,2.4 7.3,4.6 8.4,5.1"
         class="st0"
         inkscape:connector-curvature="0"
         style="fill:#05ccbb" />
      <path
         id="path10062"
         d="m 991,112.7 c 0.4,-0.2 0.6,-0.5 0.8,-0.8 3.1,-3.9 6,-7.9 8.7,-12 9.7,-15 16.4,-31.2 20.2,-48.6 1.3,-5.9 2.2,-11.9 2.7,-17.9 0.4,-4.1 0.6,-8.2 0.6,-12.3 0,-0.3 0,-0.6 -0.1,-0.8 -0.4,-0.2 -0.8,-0.5 -1.1,-0.7 -3.2,-1.8 -6.4,-3.5 -9.7,-5 -4.8,-2.2 -9.6,-4.3 -14.6,-5.8 C 992.4,6.7 986.3,6.5 980,8 c -17.7,4.3 -29,21.6 -25.7,39.5 1.9,9.9 7.2,17.6 15.7,23 0.6,0.4 1.2,0.7 1.7,1.1 6.2,3.8 11.1,8.9 14.6,15.4 3.7,6.7 5.3,14 4.9,21.7 0.1,1.1 -0.1,2.5 -0.2,4"
         class="st1"
         inkscape:connector-curvature="0"
         style="fill:#3bb8e9" />
      <path
         id="path10064"
         d="m 877.1,20.1 v 1 c 0,5.7 0.4,11.3 1,16.9 0.6,5.1 1.5,10.1 2.6,15.1 0.2,0.9 0.5,1.7 0.9,2.5 6.9,14.8 23,22.6 38.9,19 12.1,-2.7 22,-12.1 25.4,-24.1 0.9,-3.3 1.2,-6.7 1.4,-10.1 0.1,-2.3 0.3,-4.5 0.7,-6.7 2.6,-13.6 11.7,-24.8 24.4,-30.1 0.7,-0.3 1.4,-0.6 2.2,-0.8 0.1,0 0.3,-0.1 0.2,-0.2 -2,-0.7 -14,-1.9 -21.2,-2 C 938.2,0.3 923,2.3 908.2,6.8 897.3,9.9 887,14.4 877.1,20.1"
         class="st2"
         inkscape:connector-curvature="0"
         style="fill:#f5a81c" />
    </g>
  </g>
  <style
     id="style10058"
     type="text/css">
	.st0{fill:#05CCBB;}
	.st1{fill:#3BB8E9;}
	.st2{fill:#F5A81C;}
	.st3{fill:#211F33;}
</style>
</svg>
