<?xml version="1.0" encoding="UTF-8" standalone="no"?>
<svg
		xmlns="http://www.w3.org/2000/svg"
		id="svg8"
		version="1.1"
		viewBox="0 0 135.46667 135.46667"
		height="512"
		width="512">
	<defs
			id="defs2">
		<clipPath
				clipPathUnits="userSpaceOnUse"
				id="clipPath4553">
			<path
					d="M 0,800 H 800 V 0 H 0 Z"
					id="path4551"/>
		</clipPath>
		<clipPath
				clipPathUnits="userSpaceOnUse"
				id="clipPath4565">
			<path
					d="m 269.492,593.987 c -2.065,0 -4.11,-0.433 -5.998,-1.27 v 0 c -1.89,-0.837 -3.584,-2.06 -4.975,-3.589 v 0 l -72.108,-79.396 c -0.971,-1.066 -1.613,-2.39 -1.845,-3.813 v 0 c -0.233,-1.422 -0.048,-2.884 0.533,-4.203 v 0 c 0.581,-1.319 1.533,-2.443 2.74,-3.231 v 0 c 1.207,-0.79 2.617,-1.211 4.059,-1.214 v 0 l 338.6,-0.278 c 2.07,0 4.115,0.433 6.005,1.27 v 0 c 1.891,0.837 3.588,2.06 4.978,3.59 v 0 l 72.108,79.396 c 0.972,1.066 1.613,2.39 1.846,3.813 v 0 c 0.233,1.423 0.048,2.884 -0.533,4.204 v 0 c -0.581,1.318 -1.533,2.442 -2.741,3.231 v 0 c -1.206,0.788 -2.616,1.21 -4.059,1.213 v 0 z M 191.898,448.266 c -1.442,-0.004 -2.852,-0.425 -4.059,-1.214 v 0 c -1.207,-0.789 -2.159,-1.912 -2.74,-3.231 v 0 c -0.581,-1.319 -0.766,-2.781 -0.533,-4.203 v 0 c 0.232,-1.422 0.874,-2.747 1.845,-3.814 v 0 l 72.108,-79.442 c 1.391,-1.53 3.087,-2.753 4.978,-3.59 v 0 c 1.892,-0.837 3.938,-1.269 6.005,-1.269 v 0 l 338.6,0.277 c 1.443,0.004 2.853,0.425 4.059,1.214 v 0 c 1.208,0.789 2.16,1.912 2.741,3.231 v 0 c 0.581,1.32 0.766,2.78 0.533,4.203 v 0 c -0.233,1.422 -0.874,2.748 -1.846,3.813 v 0 l -72.108,79.443 c -1.389,1.53 -3.083,2.751 -4.973,3.588 v 0 c -1.89,0.837 -3.933,1.269 -6,1.271 v 0 z m 71.596,-146.531 c -1.89,-0.836 -3.584,-2.058 -4.975,-3.588 v 0 l -72.108,-79.396 c -0.971,-1.066 -1.613,-2.391 -1.845,-3.814 v 0 c -0.233,-1.421 -0.048,-2.884 0.533,-4.203 v 0 c 0.581,-1.318 1.533,-2.442 2.74,-3.23 v 0 c 1.207,-0.789 2.617,-1.211 4.059,-1.214 v 0 l 338.6,-0.277 c 2.07,0 4.115,0.433 6.005,1.27 v 0 c 1.891,0.836 3.588,2.059 4.978,3.588 v 0 l 72.108,79.397 c 0.972,1.066 1.613,2.39 1.846,3.813 v 0 c 0.233,1.423 0.048,2.884 -0.533,4.203 v 0 c -0.581,1.32 -1.533,2.443 -2.741,3.231 v 0 c -1.206,0.789 -2.616,1.211 -4.059,1.214 v 0 l -338.61,0.277 c -2.065,-0.002 -4.11,-0.434 -5.998,-1.271"
					id="path4563"/>
		</clipPath>
		<linearGradient
				x1="0"
				y1="0"
				x2="1"
				y2="0"
				gradientUnits="userSpaceOnUse"
				gradientTransform="matrix(404.88156,404.88193,-404.88193,404.88156,197.55956,197.55933)"
				spreadMethod="pad"
				id="linearGradient4577">
			<stop
					style="stop-opacity:1;stop-color:#9945ff"
					offset="0"
					id="stop4571"/>
			<stop
					style="stop-opacity:1;stop-color:#7962e7"
					offset="0.2"
					id="stop4573"/>
			<stop
					style="stop-opacity:1;stop-color:#00d18c"
					offset="1"
					id="stop4575"/>
		</linearGradient>
	</defs>
	<g
			transform="translate(0,-161.53333)"
			id="layer1">
		<g
				id="g4545"
				transform="matrix(0.17990097,0,0,-0.17990097,-4.4916443,301.49164)">
			<g
					id="g4547">
				<g
						id="g4549"
						clip-path="url(#clipPath4553)">
					<g
							id="g4555"
							transform="translate(400,769.5)">
						<path
								d="M 0,0 C 204.069,0 369.5,-165.431 369.5,-369.5 369.5,-573.569 204.069,-739 0,-739 c -204.069,0 -369.5,165.431 -369.5,369.5 C -369.5,-165.431 -204.069,0 0,0"
								style="fill:#000000;fill-opacity:1;fill-rule:nonzero;stroke:none"
								id="path4557"/>
					</g>
				</g>
			</g>
			<g
					id="g4559">
				<g
						id="g4561"
						clip-path="url(#clipPath4565)">
					<g
							id="g4567">
						<g
								id="g4569">
							<path
									d="m 269.492,593.987 c -2.065,0 -4.11,-0.433 -5.998,-1.27 v 0 c -1.89,-0.837 -3.584,-2.06 -4.975,-3.589 v 0 l -72.108,-79.396 c -0.971,-1.066 -1.613,-2.39 -1.845,-3.813 v 0 c -0.233,-1.422 -0.048,-2.884 0.533,-4.203 v 0 c 0.581,-1.319 1.533,-2.443 2.74,-3.231 v 0 c 1.207,-0.79 2.617,-1.211 4.059,-1.214 v 0 l 338.6,-0.278 c 2.07,0 4.115,0.433 6.005,1.27 v 0 c 1.891,0.837 3.588,2.06 4.978,3.59 v 0 l 72.108,79.396 c 0.972,1.066 1.613,2.39 1.846,3.813 v 0 c 0.233,1.423 0.048,2.884 -0.533,4.204 v 0 c -0.581,1.318 -1.533,2.442 -2.741,3.231 v 0 c -1.206,0.788 -2.616,1.21 -4.059,1.213 v 0 z M 191.898,448.266 c -1.442,-0.004 -2.852,-0.425 -4.059,-1.214 v 0 c -1.207,-0.789 -2.159,-1.912 -2.74,-3.231 v 0 c -0.581,-1.319 -0.766,-2.781 -0.533,-4.203 v 0 c 0.232,-1.422 0.874,-2.747 1.845,-3.814 v 0 l 72.108,-79.442 c 1.391,-1.53 3.087,-2.753 4.978,-3.59 v 0 c 1.892,-0.837 3.938,-1.269 6.005,-1.269 v 0 l 338.6,0.277 c 1.443,0.004 2.853,0.425 4.059,1.214 v 0 c 1.208,0.789 2.16,1.912 2.741,3.231 v 0 c 0.581,1.32 0.766,2.78 0.533,4.203 v 0 c -0.233,1.422 -0.874,2.748 -1.846,3.813 v 0 l -72.108,79.443 c -1.389,1.53 -3.083,2.751 -4.973,3.588 v 0 c -1.89,0.837 -3.933,1.269 -6,1.271 v 0 z m 71.596,-146.531 c -1.89,-0.836 -3.584,-2.058 -4.975,-3.588 v 0 l -72.108,-79.396 c -0.971,-1.066 -1.613,-2.391 -1.845,-3.814 v 0 c -0.233,-1.421 -0.048,-2.884 0.533,-4.203 v 0 c 0.581,-1.318 1.533,-2.442 2.74,-3.23 v 0 c 1.207,-0.789 2.617,-1.211 4.059,-1.214 v 0 l 338.6,-0.277 c 2.07,0 4.115,0.433 6.005,1.27 v 0 c 1.891,0.836 3.588,2.059 4.978,3.588 v 0 l 72.108,79.397 c 0.972,1.066 1.613,2.39 1.846,3.813 v 0 c 0.233,1.423 0.048,2.884 -0.533,4.203 v 0 c -0.581,1.32 -1.533,2.443 -2.741,3.231 v 0 c -1.206,0.789 -2.616,1.211 -4.059,1.214 v 0 l -338.61,0.277 c -2.065,-0.002 -4.11,-0.434 -5.998,-1.271"
									style="fill:url(#linearGradient4577);stroke:none"
									id="path4579"/>
						</g>
					</g>
				</g>
			</g>
		</g>
	</g>
</svg>
