<svg xmlns="http://www.w3.org/2000/svg" xmlns:xlink="http://www.w3.org/1999/xlink" viewBox="0 0 32 32" height="32" width="32"><defs><filter filterUnits="objectBoundingBox" y="-4.2%" x="-5.8%" height="111.7%" width="111.7%" id="b"><feOffset result="shadowOffsetOuter1" in="SourceAlpha" dy=".5"/><feGaussianBlur stdDeviation=".5" result="shadowBlurOuter1" in="shadowOffsetOuter1"/><feComposite result="shadowBlurOuter1" operator="out" in2="SourceAlpha" in="shadowBlurOuter1"/><feColorMatrix values="0 0 0 0 0 0 0 0 0 0 0 0 0 0 0 0 0 0 0.199473505 0" in="shadowBlurOuter1"/></filter><filter id="d" color-interpolation-filters="sRGB"><feFlood result="flood" flood-color="#6B6B6B" flood-opacity=".914"/><feComposite result="composite1" operator="in" in2="SourceGraphic" in="flood"/><feGaussianBlur result="blur" stdDeviation="10.2" in="composite1"/><feOffset result="offset" dy="-9" dx="2.1"/><feComposite result="fbSourceGraphic" in2="offset" in="SourceGraphic"/><feColorMatrix values="0 0 0 -1 0 0 0 0 -1 0 0 0 0 -1 0 0 0 0 1 0" in="fbSourceGraphic" result="fbSourceGraphicAlpha"/><feFlood result="flood" flood-color="#000" flood-opacity=".184"/><feComposite result="composite1" operator="in" in="flood" in2="fbSourceGraphic"/><feGaussianBlur result="blur" stdDeviation="5.348" in="composite1"/><feOffset result="offset" dy="-9" dx="2.1"/><feComposite result="fbSourceGraphic" in="fbSourceGraphic" in2="offset"/><feColorMatrix values="0 0 0 -1 0 0 0 0 -1 0 0 0 0 -1 0 0 0 0 1 0" in="fbSourceGraphic" result="fbSourceGraphicAlpha"/><feFlood result="flood" flood-color="#000" flood-opacity=".184"/><feComposite result="composite1" operator="in" in="flood" in2="fbSourceGraphic"/><feGaussianBlur result="blur" stdDeviation="5.3" in="composite1"/><feOffset result="offset" dy="-9" dx="2.1"/><feComposite result="composite2" in="fbSourceGraphic" in2="offset"/></filter><linearGradient y2="100%" y1="0%" x2="50%" x1="50%" id="c"><stop stop-opacity=".5" stop-color="#FFF" offset="0%"/><stop stop-opacity=".5" offset="100%"/></linearGradient><circle r="15" cy="15" cx="16" id="a"/></defs><g fill="none"><use xlink:href="#a" filter="url(#b)" fill="#000"/><use xlink:href="#a" fill-rule="evenodd" fill="#0FACF3"/><use xlink:href="#a" style="mix-blend-mode:soft-light" fill-rule="evenodd" fill="url(#c)"/><circle stroke-opacity=".097" stroke="#000" r="14.5" cy="15" cx="16"/><g transform="matrix(.03919 0 0 -.03919 .134 30.438)" fill="#fff" filter="url(#d)"><path d="M269.492 593.987c-2.065 0-4.11-.433-5.998-1.27a14.863 14.863 0 01-4.975-3.589l-72.108-79.396a7.446 7.446 0 01-1.312-8.016 7.442 7.442 0 012.74-3.231 7.439 7.439 0 014.059-1.214l338.6-.278a14.844 14.844 0 0110.983 4.86l72.108 79.396a7.45 7.45 0 011.313 8.017 7.45 7.45 0 01-6.8 4.444zm-77.594-145.721a7.447 7.447 0 01-6.799-4.445 7.452 7.452 0 011.312-8.017l72.108-79.442a14.845 14.845 0 0110.983-4.859l338.6.277a7.443 7.443 0 016.8 4.445 7.443 7.443 0 01-1.313 8.016l-72.108 79.443a14.85 14.85 0 01-10.973 4.859zm71.596-146.531a14.833 14.833 0 01-4.975-3.588l-72.108-79.396a7.447 7.447 0 01-1.312-8.017 7.447 7.447 0 016.799-4.444l338.6-.277c2.07 0 4.115.433 6.005 1.27a14.838 14.838 0 014.978 3.588l72.108 79.397a7.445 7.445 0 011.313 8.016 7.432 7.432 0 01-2.741 3.231 7.442 7.442 0 01-4.059 1.214l-338.61.277a14.84 14.84 0 01-5.998-1.271"/></g></g></svg>