<svg xmlns="http://www.w3.org/2000/svg" viewBox="0 0 135.467 135.467" height="512" width="512"><path d="M67.469 1.524C30.757 1.524.995 31.286.995 67.998S30.757 134.47 67.47 134.47s66.473-29.76 66.473-66.473c0-36.712-29.761-66.474-66.473-66.474zM43.99 33.1l60.916.05a1.34 1.34 0 01.988 2.242L92.92 49.674a2.67 2.67 0 01-1.976.875l-60.914-.05a1.34 1.34 0 01-.987-2.242l12.972-14.283a2.673 2.673 0 011.974-.875zm46.957 26.166a2.67 2.67 0 011.974.874l12.973 14.292a1.338 1.338 0 01-.257 2.023 1.342 1.342 0 01-.73.219l-60.915.05a2.672 2.672 0 01-1.976-.874L29.044 61.557a1.34 1.34 0 01.987-2.242l60.916-.05zM43.99 85.447l60.916.05a1.338 1.338 0 01.988 2.242L92.92 102.022a2.67 2.67 0 01-1.976.875l-60.914-.05a1.341 1.341 0 01-1.32-1.556 1.34 1.34 0 01.333-.686L42.016 86.32a2.668 2.668 0 011.974-.874z"/></svg>